<?xml version="1.0" encoding="UTF-8" standalone="no"?>
<svg
   version="1.1"
   width="800px"
   height="800px"
   id="svg1503"
   sodipodi:docname="favicon-dark.svg"
   inkscape:version="1.1.1 (3bf5ae0d25, 2021-09-20)"
   xmlns:inkscape="http://www.inkscape.org/namespaces/inkscape"
   xmlns:sodipodi="http://sodipodi.sourceforge.net/DTD/sodipodi-0.dtd"
   xmlns="http://www.w3.org/2000/svg"
   xmlns:svg="http://www.w3.org/2000/svg">
  <defs
     id="defs1507" />
  <sodipodi:namedview
     id="namedview1505"
     pagecolor="#ffffff"
     bordercolor="#666666"
     borderopacity="1.0"
     inkscape:pageshadow="2"
     inkscape:pageopacity="0.0"
     inkscape:pagecheckerboard="0"
     showgrid="false"
     inkscape:zoom="0.88625"
     inkscape:cx="399.43583"
     inkscape:cy="393.2299"
     inkscape:window-width="1920"
     inkscape:window-height="1001"
     inkscape:window-x="-11"
     inkscape:window-y="-11"
     inkscape:window-maximized="1"
     inkscape:current-layer="svg1503" />
  <svg
     fill="#000000"
     height="800px"
     width="800px"
     version="1.1"
     id="SvgjsSvg1000"
     viewBox="0 0 485 485"
     xml:space="preserve">
<g
   id="g1498">
	<path
   d="M382.5,69.429c-7.441,0-14.5,1.646-20.852,4.573c-4.309-23.218-24.7-40.859-49.148-40.859   c-7.68,0-14.958,1.744-21.467,4.852C285.641,16.205,265.932,0,242.5,0c-23.432,0-43.141,16.206-48.533,37.995   c-6.508-3.107-13.787-4.852-21.467-4.852c-27.57,0-50,22.43-50,50v122.222c-6.129-2.686-12.891-4.187-20-4.187   c-27.57,0-50,22.43-50,50V354c0,72.233,58.766,131,131,131h118c72.233,0,131-58.767,131-131V119.429   C432.5,91.858,410.07,69.429,382.5,69.429z M402.5,354c0,55.691-45.309,101-101,101h-118c-55.691,0-101-45.309-101-101V251.178   c0-11.028,8.972-20,20-20s20,8.972,20,20v80h30V83.143c0-11.028,8.972-20,20-20s20,8.972,20,20v158.035h30V50   c0-11.028,8.972-20,20-20c11.028,0,20,8.972,20,20v191.178h30V83.143c0-11.028,8.972-20,20-20s20,8.972,20,20v158.035h30v-121.75   c0-11.028,8.972-20,20-20s20,8.972,20,20V354z"
   id="path1496" />
</g>
</svg>
  <style
     id="style1501">@media (prefers-color-scheme: light) { :root { filter: none; } }
@media (prefers-color-scheme: dark) { :root { filter: none; } }
</style>
  <path
     style="fill:#ffffff;stroke-width:7.55905"
     d="M 282.08745,799.28421 C 206.82129,791.59273 141.46293,746.04871 108.23581,678.13822 95.358346,651.8189 88.722791,626.03573 86.891995,595.20451 85.477616,571.38588 85.470121,422.14042 86.882575,407.62101 90.739905,367.96933 119.70677,337.69233 158.92234,332.32297 171.29005,330.6296 187.65704,332.65775 199.97256,337.40981 201.80686,338.1176 201.93847,331.89243 202.24315,230.01146 202.60327,109.5894 202.10233,117.44168 210.49105,100.72661 221.68021,78.431425 240.95015,62.969742 265.18566,56.841094 278.24093,53.539695 296.71254,54.228774 309.73202,58.502884 314.69676,60.132738 319.05926,61.472737 319.42647,61.480659 319.79368,61.488581 320.73175,59.337094 321.51104,56.699577 323.66277,49.41712 330.11171,37.737766 336.05372,30.362036 360.34594,0.20849467 403.68597,-8.8212265 437.87962,9.147021 456.70184,19.037827 473.00009,38.122674 478.48896,56.699577 479.26825,59.337094 480.20632,61.488581 480.57353,61.480659 480.94074,61.472737 485.30324,60.091007 490.26798,58.410148 498.44934,55.640272 500.82713,55.354987 515.65585,55.364121 530.51985,55.373277 532.81775,55.65373 540.76895,58.429111 562.52849,66.024323 578.12352,79.33089 588.6627,99.294781 590.95603,103.63893 593.67188,110.23977 594.69792,113.96333 595.72396,117.68688 597.01932,120.71142 597.57651,120.68452 598.13369,120.65764 602.39774,119.38824 607.05219,117.86365 614.44652,115.4416 617.50895,115.09739 631.31171,115.13694 645.38593,115.17726 648.09299,115.5125 656.1354,118.21102 683.68472,127.45486 704.3497,149.89674 711.7281,178.58394 713.54547,185.64981 713.68124,200.61085 713.68124,393.79408 713.68124,622.42878 714.08188,608.17677 706.83607,637.29326 684.9672,725.1709 608.30446,790.38146 516.30614,799.36111 501.39272,800.81676 296.4259,800.74946 282.08745,799.28421 Z M 532.01693,746.71948 C 602.65715,729.96184 653.5788,674.27333 662.28122,604.26091 663.0735,597.88684 663.46968,527.46943 663.46968,393.01975 663.46968,192.67142 663.45445,191.29926 661.16388,185.17716 658.38182,177.74144 651.64175,170.4794 644.46412,167.18414 637.87939,164.16106 624.49598,163.99518 618.02846,166.85649 611.87465,169.57899 605.07362,176.14855 601.60487,182.72106 L 598.58956,188.43441 598.2793,293.08886 597.96904,397.7433 H 573.1958 548.42257 L 548.11819,263.18759 547.81382,128.63188 544.76427,122.85094 C 532.00386,98.661498 498.94346,98.597911 486.04431,122.73801 L 483.49788,127.50353 483.19794,262.62341 482.89797,397.7433 H 457.52798 432.15797 L 432.13319,236.10719 C 432.10865,76.047423 432.08604,74.421567 429.81475,69.393512 420.32999,48.396627 392.41632,43.438409 376.64847,59.949752 374.35522,62.351154 371.44676,66.600846 370.18525,69.393512 367.91396,74.421567 367.89135,76.047423 367.86681,236.10719 L 367.84203,397.7433 H 342.47202 317.10203 L 316.80206,262.62341 316.50212,127.50353 313.95569,122.73801 C 301.0347,98.557017 268.01776,98.62052 255.23573,122.85094 L 252.18618,128.63188 251.88944,337.65867 251.5927,546.68547 H 226.82415 202.05558 L 201.73301,476.4457 C 201.43985,412.61142 201.23182,405.81098 199.45183,401.87509 193.96105,389.73408 182.38841,381.9464 169.83742,381.9464 156.50527,381.9464 146.77345,387.60283 140.44361,399.03097 L 137.0945,405.07757 136.74814,499.29478 C 136.5043,565.62303 136.78777,596.68499 137.70578,604.23131 145.86648,671.31479 195.13239,727.54074 260.86558,744.79049 279.1159,749.57975 279.80337,749.60178 403.38505,749.36017 520.02323,749.13213 522.01936,749.09115 532.01693,746.71948 Z"
     id="path1665" />
</svg>
