<?xml version="1.0" standalone="no"?>
<!DOCTYPE svg PUBLIC "-//W3C//DTD SVG 20010904//EN"
 "http://www.w3.org/TR/2001/REC-SVG-20010904/DTD/svg10.dtd">
<svg version="1.0" xmlns="http://www.w3.org/2000/svg"
 width="700.000000pt" height="700.000000pt" viewBox="0 0 700.000000 700.000000"
 preserveAspectRatio="xMidYMid meet">
<metadata>
Created by potrace 1.14, written by Peter Selinger 2001-2017
</metadata>
<g transform="translate(0.000000,700.000000) scale(0.100000,-0.100000)"
fill="#000000" stroke="none">
<path d="M3360 6986 c-246 -48 -468 -245 -545 -483 l-17 -52 -41 18 c-84 35
-142 46 -257 46 -157 0 -216 -12 -331 -70 -215 -109 -367 -321 -395 -550 -2
-16 -3 -441 -4 -944 0 -866 -1 -913 -17 -906 -124 47 -313 63 -423 35 -30 -8
-57 -15 -60 -15 -27 -5 -94 -34 -149 -66 -196 -113 -330 -314 -357 -536 -8
-65 -8 -1640 -1 -1718 8 -79 17 -146 28 -205 16 -89 19 -100 34 -143 8 -23 15
-50 15 -59 0 -10 6 -32 14 -50 32 -75 44 -104 51 -128 13 -42 108 -221 160
-300 104 -159 277 -349 414 -453 31 -23 65 -50 75 -60 11 -9 25 -17 32 -17 7
0 14 -4 16 -8 5 -14 147 -96 241 -141 85 -39 295 -115 347 -125 14 -2 45 -9
70 -15 142 -36 248 -39 1250 -39 964 0 1061 3 1200 32 14 3 39 8 55 12 172 34
412 133 580 238 405 253 694 636 824 1090 41 143 51 199 67 376 8 95 9 3572 0
3623 -43 262 -205 470 -442 570 -146 62 -339 69 -488 20 l-87 -29 -5 25 c-35
158 -143 321 -284 427 -54 41 -187 100 -262 117 -132 29 -343 11 -437 -38
l-29 -15 -21 61 c-75 223 -269 404 -496 464 -82 21 -245 27 -325 11z m255
-445 c82 -36 155 -126 169 -207 2 -16 5 -656 5 -1421 l1 -1393 215 0 215 0 0
38 c1 20 1 543 1 1161 1 1263 -4 1182 76 1271 61 68 119 94 213 94 92 0 150
-25 209 -89 82 -90 76 19 78 -1250 1 -621 3 -1151 3 -1177 l0 -48 215 0 215 0
1 888 c0 488 3 901 5 917 15 90 87 180 174 217 52 22 137 27 196 10 86 -25
170 -113 194 -204 12 -43 9 -3615 -3 -3663 -4 -16 -12 -55 -18 -85 -90 -468
-435 -881 -889 -1063 -130 -52 -233 -77 -382 -95 -75 -9 -1999 -8 -2038 1 -14
3 -42 8 -62 11 -205 31 -444 133 -623 266 -272 201 -472 496 -549 811 -44 177
-45 207 -45 1074 l-1 830 24 51 c41 88 115 152 198 170 188 41 363 -106 358
-301 -1 -27 -1 -294 -1 -592 l1 -543 215 0 215 0 0 78 c0 42 1 865 3 1827 l2
1750 23 46 c70 140 233 204 372 145 59 -25 121 -85 150 -149 l28 -59 1 -1141
c0 -628 1 -1154 1 -1169 l0 -28 215 0 215 0 1 1393 c1 765 3 1402 4 1414 7 64
69 155 132 194 79 49 184 57 268 20z"/>
</g>
</svg>
